<svg width="24" height="24" viewBox="0 0 24 24" fill="none" xmlns="http://www.w3.org/2000/svg">
<path d="M12.2135 3C9.76608 3 8.0838 3.88041 7.54858 4.32062H17.2205C16.5712 3.88041 14.6609 3 12.2135 3Z" fill="#92CEEE"/>
<path d="M15.3108 8.5675L14.5602 4.78616H17.914C19.9966 6.3671 20.967 8.30148 21.1918 9.07104H16.4034C15.5597 9.07104 15.3234 8.73535 15.3108 8.5675Z" fill="#92CEEE"/>
<path d="M8.05212 4.76721H13.1351C13.5227 4.76721 13.6576 5.0459 13.6766 5.18525C13.873 6.04033 14.2866 7.87969 14.3702 8.39654C14.4538 8.91338 14.1517 9.07426 13.9902 9.0901H5.99994C5.08026 9.0901 5.1797 8.62772 5.34438 8.39654C6.18045 6.13153 7.49791 5.03324 8.05212 4.76721Z" fill="#116DD5"/>
<path d="M18.7406 9.67915H10.2373C9.81926 9.67915 9.67041 10.0529 9.64824 10.2397C9.61974 11.592 9.57984 14.3802 9.64824 14.7146C9.71665 15.049 10.1391 15.1896 10.3418 15.2181C12.8754 15.2118 18.0679 15.1934 18.5695 15.1706C19.0712 15.1478 19.3486 14.8571 19.4246 14.7146C19.6716 12.9949 19.4911 11.6743 19.4246 10.6197C19.3714 9.77606 18.9464 9.64115 18.7406 9.67915Z" fill="#116DD5"/>
<path d="M6.71245 4.85266C4.66787 6.46401 3.77669 8.33631 3.58667 9.07104L4.63176 8.96653C5.0194 7.35519 6.45909 5.55256 7.13049 4.85266H6.71245Z" fill="#116DD5"/>
<path d="M3.37771 15.0946C2.69364 13.6049 3.09268 10.9206 3.37771 9.76465H7.65309C8.45876 9.76465 8.59051 10.1383 8.55567 10.3252C8.543 11.402 8.52527 13.7322 8.55567 14.4391C8.58607 15.1459 8.1503 15.1706 7.92861 15.0946H3.37771Z" fill="#0F2C59"/>
<path d="M6.73151 19.9781C5.31778 19.2712 3.98893 16.8459 3.50122 15.7217H4.54631C5.4812 18.2071 6.71568 19.5949 7.21605 19.9781H6.73151Z" fill="#0F2C59"/>
<path d="M8.07114 20.0636C6.5054 19.1363 5.57559 16.827 5.3064 15.7882H14.0567C14.3227 15.7882 14.3892 16.1239 14.3892 16.2918C14.2435 17.2418 13.9066 19.2351 13.7242 19.6075C13.5417 19.98 13.2554 20.0668 13.1351 20.0636H8.07114Z" fill="#0F2C59"/>
<path d="M14.5792 19.6265L15.2918 16.2632C15.3627 15.9288 15.7267 15.7881 15.8999 15.7596H21.1063C20.5363 17.8194 18.8293 19.4745 18.0471 20.0445H15.0448C14.5431 20.0445 14.5254 19.7658 14.5792 19.6265Z" fill="#116DD5"/>
<path d="M17.287 20.4626H7.49158C8.25165 20.9377 10.3228 21.884 12.527 21.8688C14.7312 21.8536 16.6187 20.925 17.287 20.4626Z" fill="#0F2C59"/>
<path d="M19.9757 14.6481C20.5229 13.1508 20.2037 10.8319 19.9757 9.85968C19.9518 9.75327 20.1304 9.73934 20.2227 9.74567H21.4008C22.1913 11.6382 21.7302 14.0812 21.4008 15.0661C21.2773 15.0598 20.9068 15.0509 20.4127 15.0661C19.9187 15.0813 19.9155 14.7938 19.9757 14.6481Z" fill="#92CEEE"/>
</svg>
