<svg width="24" height="24" viewBox="0 0 24 24" fill="none" xmlns="http://www.w3.org/2000/svg">
<path fill-rule="evenodd" clip-rule="evenodd" d="M9.14604 11.146C9.19248 11.0995 9.24766 11.0625 9.30841 11.0373C9.36915 11.0121 9.43427 10.9991 9.50004 10.9991C9.56581 10.9991 9.63093 11.0121 9.69167 11.0373C9.75242 11.0625 9.80759 11.0995 9.85404 11.146L11.5 12.793L13.146 11.146C13.2399 11.0522 13.3673 10.9994 13.5 10.9994C13.6328 10.9994 13.7602 11.0522 13.854 11.146C13.9479 11.2399 14.0007 11.3673 14.0007 11.5C14.0007 11.6328 13.9479 11.7602 13.854 11.854L11.854 13.854C11.8076 13.9006 11.7524 13.9375 11.6917 13.9628C11.6309 13.988 11.5658 14.0009 11.5 14.0009C11.4343 14.0009 11.3692 13.988 11.3084 13.9628C11.2477 13.9375 11.1925 13.9006 11.146 13.854L9.14604 11.854C9.09948 11.8076 9.06253 11.7524 9.03733 11.6917C9.01212 11.6309 8.99915 11.5658 8.99915 11.5C8.99915 11.4343 9.01212 11.3692 9.03733 11.3084C9.06253 11.2477 9.09948 11.1925 9.14604 11.146Z" fill="white"/>
</svg>
