<svg width="24" height="24" viewBox="0 0 24 24" fill="none" xmlns="http://www.w3.org/2000/svg">
<path d="M5 7.5C5 7.10218 5.16389 6.72064 5.45561 6.43934C5.74733 6.15804 6.143 6 6.55556 6H7.91278C8.29143 6.00016 8.65701 6.13349 8.941 6.375L10.7081 7.875C10.9921 8.11651 11.3577 8.24984 11.7363 8.25H17.4444C17.857 8.25 18.2527 8.40804 18.5444 8.68934C18.8361 8.97064 19 9.35218 19 9.75V16.5C19 16.8978 18.8361 17.2794 18.5444 17.5607C18.2527 17.842 17.857 18 17.4444 18H6.55556C6.143 18 5.74733 17.842 5.45561 17.5607C5.16389 17.2794 5 16.8978 5 16.5V7.5Z" stroke="white" stroke-width="1.5" stroke-linecap="round" stroke-linejoin="round"/>
</svg>
