<svg width="24" height="24" viewBox="0 0 24 24" fill="none" xmlns="http://www.w3.org/2000/svg">
<circle cx="12" cy="11" r="6.25" transform="rotate(-45 12 11)" stroke="white" stroke-width="1.5"/>
<path d="M10.409 9.40895C11.7217 8.09631 13.1142 7.16238 14.2788 6.69653C14.8624 6.4631 15.354 6.36122 15.7303 6.3637C16.102 6.36617 16.3059 6.46699 16.4194 6.58052C16.533 6.69406 16.6338 6.89801 16.6363 7.26968C16.6387 7.64594 16.5369 8.13757 16.3034 8.72118C15.8376 9.88581 14.9037 11.2783 13.591 12.5909C12.2784 13.9036 10.8859 14.8375 9.72126 15.3033C9.13765 15.5368 8.64602 15.6387 8.26976 15.6362C7.89809 15.6337 7.69415 15.5329 7.58061 15.4194C7.46707 15.3058 7.36625 15.1019 7.36378 14.7302C7.3613 14.3539 7.46318 13.8623 7.69662 13.2787C8.16247 12.1141 9.09639 10.7216 10.409 9.40895Z" stroke="white" stroke-width="1.5"/>
</svg>
