<svg width="24" height="24" viewBox="0 0 24 24" fill="none" xmlns="http://www.w3.org/2000/svg">
<path fill-rule="evenodd" clip-rule="evenodd" d="M12 9.05261C11.2183 9.05261 10.4686 9.36314 9.91589 9.91589C9.36314 10.4686 9.05261 11.2183 9.05261 12C9.05261 12.7817 9.36314 13.5314 9.91589 14.0841C10.4686 14.6369 11.2183 14.9474 12 14.9474C12.7817 14.9474 13.5314 14.6369 14.0841 14.0841C14.6369 13.5314 14.9474 12.7817 14.9474 12C14.9474 11.2183 14.6369 10.4686 14.0841 9.91589C13.5314 9.36314 12.7817 9.05261 12 9.05261ZM10.2316 12C10.2316 11.531 10.4179 11.0812 10.7495 10.7495C11.0812 10.4179 11.531 10.2316 12 10.2316C12.469 10.2316 12.9188 10.4179 13.2505 10.7495C13.5821 11.0812 13.7685 11.531 13.7685 12C13.7685 12.469 13.5821 12.9188 13.2505 13.2505C12.9188 13.5821 12.469 13.7685 12 13.7685C11.531 13.7685 11.0812 13.5821 10.7495 13.2505C10.4179 12.9188 10.2316 12.469 10.2316 12Z" fill="white"/>
<path fill-rule="evenodd" clip-rule="evenodd" d="M11.9804 3.55078C11.6306 3.55078 11.339 3.55078 11.1001 3.5665C10.8558 3.57634 10.6149 3.62681 10.3872 3.71584C10.1249 3.82437 9.88651 3.98352 9.68571 4.18419C9.48491 4.38486 9.3256 4.62312 9.21689 4.88536C9.10292 5.16045 9.07227 5.45126 9.05969 5.76723C9.05829 5.88275 9.02764 5.99604 8.9706 6.09651C8.91356 6.19698 8.83199 6.28136 8.73351 6.34177C8.63198 6.39704 8.5181 6.42567 8.40251 6.42499C8.28691 6.4243 8.17337 6.39432 8.07251 6.33784C7.7927 6.19008 7.52547 6.0714 7.22995 6.0321C6.94852 5.99508 6.66257 6.01386 6.3884 6.08736C6.11424 6.16085 5.85723 6.28763 5.63206 6.46045C5.44138 6.61331 5.27749 6.79686 5.14712 7.00356C5.0135 7.2032 4.86731 7.4555 4.69282 7.7581L4.67317 7.79268C4.4979 8.09528 4.3525 8.34758 4.24718 8.56293C4.13714 8.78772 4.05068 9.00937 4.01925 9.25459C3.94426 9.82284 4.09806 10.3976 4.44681 10.8525C4.62837 11.0891 4.86495 11.2612 5.13218 11.4294C5.23171 11.4884 5.31464 11.5717 5.3732 11.6715C5.43176 11.7713 5.46404 11.8843 5.46701 12C5.46404 12.1157 5.43176 12.2287 5.3732 12.3285C5.31464 12.4283 5.23171 12.5116 5.13218 12.5706C4.86495 12.7388 4.62916 12.9109 4.44681 13.1475C4.27399 13.3727 4.14721 13.6297 4.07372 13.9039C4.00022 14.178 3.98144 14.464 4.01846 14.7454C4.05068 14.9906 4.13636 15.2123 4.24639 15.4371C4.3525 15.6524 4.4979 15.9047 4.67317 16.2073L4.69282 16.2419C4.86731 16.5445 5.0135 16.7968 5.14712 16.9964C5.28623 17.2031 5.43557 17.3894 5.63206 17.5388C5.85717 17.7117 6.11415 17.8386 6.38832 17.9123C6.66249 17.9859 6.94847 18.0048 7.22995 17.9679C7.52547 17.9286 7.7927 17.8107 8.07251 17.6621C8.17328 17.6058 8.28667 17.5759 8.40211 17.5752C8.51756 17.5745 8.6313 17.6031 8.73273 17.6582C8.83201 17.7179 8.91429 17.8021 8.97168 17.9027C9.02908 18.0033 9.05965 18.1169 9.06048 18.2328C9.07227 18.5487 9.10292 18.8395 9.21767 19.1146C9.32621 19.3769 9.48535 19.6153 9.68602 19.8161C9.88669 20.0169 10.125 20.1762 10.3872 20.2849C10.6151 20.3793 10.8509 20.4162 11.1001 20.4327C11.339 20.4492 11.6306 20.4492 11.9804 20.4492H12.0197C12.3694 20.4492 12.661 20.4492 12.9 20.4335C13.1499 20.4162 13.3849 20.3793 13.6128 20.2842C13.8752 20.1756 14.1135 20.0165 14.3143 19.8158C14.5151 19.6151 14.6744 19.3769 14.7832 19.1146C14.8971 18.8395 14.9278 18.5487 14.9403 18.2328C14.9416 18.1171 14.9722 18.0037 15.0293 17.903C15.0863 17.8024 15.1679 17.7179 15.2665 17.6574C15.3681 17.6023 15.482 17.5738 15.5976 17.5746C15.7132 17.5754 15.8267 17.6056 15.9275 17.6621C16.2073 17.8099 16.4746 17.9286 16.7701 17.9671C17.3383 18.0421 17.9131 17.8883 18.368 17.5395C18.5645 17.3886 18.7138 17.2031 18.8529 16.9964C18.9865 16.7968 19.1327 16.5445 19.3072 16.2419L19.3269 16.2073C19.5021 15.9047 19.6475 15.6524 19.7529 15.4371C19.8629 15.2123 19.9494 14.9898 19.9808 14.7454C20.0558 14.1771 19.902 13.6024 19.5532 13.1475C19.3717 12.9109 19.1351 12.7388 18.8679 12.5706C18.7683 12.5116 18.6854 12.4283 18.6268 12.3285C18.5683 12.2287 18.536 12.1157 18.533 12C18.533 11.7815 18.6525 11.5646 18.8679 11.4294C19.1351 11.2612 19.3709 11.0891 19.5532 10.8525C19.726 10.6273 19.8528 10.3703 19.9263 10.0961C19.9998 9.82197 20.0186 9.53601 19.9816 9.25459C19.9445 9.01298 19.8675 8.77923 19.7536 8.56293C19.6194 8.30182 19.4771 8.04494 19.3269 7.79268L19.3072 7.7581C19.1637 7.50193 19.0121 7.2503 18.8529 7.00356C18.7225 6.79714 18.5586 6.61386 18.368 6.46124C18.1429 6.28828 17.8859 6.16136 17.6117 6.08773C17.3376 6.01409 17.0516 5.99519 16.7701 6.0321C16.4746 6.0714 16.2073 6.18929 15.9275 6.33784C15.8268 6.39418 15.7134 6.42408 15.5979 6.42477C15.4825 6.42546 15.3687 6.3969 15.2673 6.34177C15.1685 6.28155 15.0867 6.19725 15.0293 6.09677C14.972 5.99628 14.9411 5.8829 14.9396 5.76723C14.9278 5.45126 14.8971 5.16045 14.7824 4.88536C14.6738 4.62305 14.5147 4.38468 14.314 4.18387C14.1133 3.98307 13.8751 3.82376 13.6128 3.71505C13.3849 3.62073 13.1491 3.58379 12.9 3.56729C12.661 3.55078 12.3694 3.55078 12.0197 3.55078H11.9804ZM10.8384 4.80441C10.8989 4.77926 10.9908 4.75646 11.1802 4.7431C11.3744 4.72974 11.6259 4.72974 12 4.72974C12.3741 4.72974 12.6257 4.72974 12.8198 4.7431C13.0092 4.75646 13.1012 4.77926 13.1617 4.80441C13.403 4.90423 13.594 5.09522 13.6938 5.33651C13.7252 5.41197 13.7512 5.53065 13.7614 5.81124C13.785 6.43373 14.1064 7.03343 14.677 7.36275C15.2477 7.69207 15.9275 7.67085 16.4785 7.38004C16.7269 7.24879 16.8424 7.21185 16.9241 7.20163C17.1824 7.1675 17.4436 7.23733 17.6504 7.39576C17.7023 7.43585 17.7683 7.50423 17.8744 7.66142C17.9836 7.82333 18.1094 8.04105 18.2965 8.36487C18.4835 8.68869 18.6085 8.90719 18.6942 9.08168C18.7783 9.25223 18.8042 9.34341 18.812 9.40864C18.8462 9.66688 18.7763 9.92811 18.6179 10.1349C18.5676 10.2001 18.478 10.2819 18.2406 10.4312C17.7125 10.7629 17.3541 11.3413 17.3541 12C17.3541 12.6586 17.7125 13.2371 18.2406 13.5688C18.478 13.7181 18.5676 13.7999 18.6179 13.8651C18.7767 14.0718 18.8458 14.3328 18.812 14.5913C18.8042 14.6566 18.7775 14.7485 18.6942 14.9183C18.6085 15.0936 18.4835 15.3113 18.2965 15.6351C18.1094 15.9589 17.9828 16.1767 17.8744 16.3386C17.7683 16.4958 17.7023 16.5641 17.6504 16.6042C17.4436 16.7627 17.1824 16.8325 16.9241 16.7984C16.8424 16.7881 16.7276 16.7512 16.4785 16.6199C15.9283 16.3291 15.2477 16.3071 14.677 16.6365C14.1064 16.9658 13.785 17.5663 13.7614 18.1887C13.7512 18.4693 13.7252 18.588 13.6938 18.6635C13.6444 18.7828 13.572 18.8912 13.4807 18.9825C13.3894 19.0738 13.281 19.1462 13.1617 19.1956C13.1012 19.2207 13.0092 19.2435 12.8198 19.2569C12.6257 19.2702 12.3741 19.2702 12 19.2702C11.6259 19.2702 11.3744 19.2702 11.1802 19.2569C10.9908 19.2435 10.8989 19.2207 10.8384 19.1956C10.719 19.1462 10.6106 19.0738 10.5193 18.9825C10.428 18.8912 10.3556 18.7828 10.3062 18.6635C10.2748 18.588 10.2489 18.4693 10.2387 18.1887C10.2151 17.5663 9.89361 16.9666 9.32299 16.6372C8.75238 16.3079 8.07251 16.3291 7.52154 16.6199C7.27318 16.7512 7.15764 16.7881 7.0759 16.7984C6.81765 16.8325 6.55643 16.7627 6.34966 16.6042C6.29778 16.5641 6.23176 16.4958 6.12565 16.3386C5.9778 16.1085 5.83704 15.8739 5.70359 15.6351C5.51652 15.3113 5.39155 15.0928 5.30588 14.9183C5.22178 14.7478 5.19585 14.6566 5.18799 14.5913C5.15386 14.3331 5.22369 14.0719 5.38212 13.8651C5.43243 13.7999 5.52203 13.7181 5.75939 13.5688C6.28756 13.2371 6.64597 12.6586 6.64597 12C6.64597 11.3413 6.28756 10.7629 5.75939 10.4312C5.52203 10.2819 5.43243 10.2001 5.38212 10.1349C5.22369 9.92811 5.15386 9.66688 5.18799 9.40864C5.19585 9.34341 5.22257 9.25145 5.30588 9.08168C5.39155 8.9064 5.51652 8.68869 5.70359 8.36487C5.89065 8.04105 6.01719 7.82333 6.12565 7.66142C6.23176 7.50423 6.29778 7.43585 6.34966 7.39576C6.55643 7.23733 6.81765 7.1675 7.0759 7.20163C7.15764 7.21185 7.27239 7.24879 7.52154 7.38004C8.07172 7.67085 8.75238 7.69286 9.32299 7.36275C9.89361 7.03343 10.2151 6.43373 10.2387 5.81124C10.2489 5.53065 10.2748 5.41197 10.3062 5.33651C10.4061 5.09522 10.5971 4.90423 10.8384 4.80441Z" fill="white"/>
</svg>
